<svg xmlns="http://www.w3.org/2000/svg" viewBox="0 0 512 512" id="exchange"><path fill="#fe646f" fill-rule="evenodd" d="M241.239 338.149v-39.476c0-2.03-1.069-3.768-2.878-4.685-1.81-.916-3.844-.75-5.479.451l-117.545 86.237c-1.346.987-2.089 2.399-2.143 4.066-.053 1.667.598 3.125 1.878 4.195l117.545 98.38c1.601 1.339 3.701 1.614 5.593.731 1.891-.883 3.029-2.67 3.029-4.758v-36.672c183.262 0 243.369-134.731 190.126-230.545-29.452 114.689-125.62 122.076-190.126 122.076z" clip-rule="evenodd"></path><path fill="#fd4755" fill-rule="evenodd" d="M225.489 356.962v-38.046l-103.421 75.876-6.995-5.854c-1.279-1.071-1.931-2.528-1.878-4.195.054-1.667.798-3.08 2.143-4.066l117.545-86.237c1.636-1.2 3.669-1.367 5.48-.451 1.81.917 2.878 2.656 2.878 4.685v39.476c57.677 0 140.667-5.905 178.646-89.141-39.239 98.638-129.659 107.953-194.398 107.953z" clip-rule="evenodd"></path><g fill-rule="evenodd" clip-rule="evenodd"><path fill="#b7e546" d="M270.761 173.851v39.476c0 2.03 1.069 3.768 2.878 4.685 1.81.916 3.844.75 5.479-.451l117.545-86.237c1.346-.987 2.089-2.399 2.143-4.067.053-1.667-.598-3.125-1.878-4.195l-117.545-98.38c-1.601-1.339-3.701-1.614-5.593-.731-1.891.883-3.029 2.67-3.029 4.758v36.672c-183.262 0-243.369 134.731-190.126 230.545 29.452-114.688 125.62-122.075 190.126-122.075z"></path><path fill="#abd641" d="M286.512 155.038v38.046l103.421-75.876 6.995 5.854c1.279 1.071 1.931 2.528 1.878 4.195-.053 1.667-.798 3.08-2.143 4.066L279.118 217.56c-1.636 1.2-3.669 1.367-5.48.451-1.81-.917-2.878-2.656-2.878-4.685V173.85c-57.677 0-140.667 5.905-178.646 89.141 39.239-98.638 129.658-107.953 194.398-107.953z"></path></g><path fill-rule="evenodd" d="M423.49 354.882c-31.397 53.37-97.899 83.979-182.448 83.979-4.42 0-8 3.58-8 8v30.841l-110.479-92.47 110.479-81.063v34.114c0 4.42 3.58 8 8 8 34.68 0 75.059-2.231 111.621-18.765 38.001-17.175 64.917-47.176 80.247-89.309 14.779 38.529 11.618 80.912-9.42 116.673zm14.873-142.693a8.006 8.006 0 0 0-8.024-4.047 7.991 7.991 0 0 0-6.717 5.939c-25.374 98.79-101.432 115.121-174.58 116.14V288.38a7.997 7.997 0 0 0-4.392-7.128 7.975 7.975 0 0 0-8.34.679l-131.452 96.437a8.004 8.004 0 0 0-3.259 6.194 8.011 8.011 0 0 0 2.858 6.387L235.9 500.961a8.018 8.018 0 0 0 5.142 1.868 8.006 8.006 0 0 0 8.001-8v-40.048c44.162-.939 83.059-9.67 115.72-25.992 31.331-15.651 56.397-38.402 72.521-65.789 27.325-46.459 27.735-102.838 1.079-150.811zM79.089 273.79c15.331-42.128 42.251-72.129 80.252-89.309 36.558-16.529 76.941-18.76 111.621-18.76a7.997 7.997 0 0 1 7.995 8v34.109l110.484-81.059-110.484-92.473v30.841c0 4.42-3.58 8-7.995 8-84.549 0-151.051 30.609-182.453 83.983-21.038 35.76-24.199 78.138-9.42 116.668zm183.873-92.007v41.836a8 8 0 0 0 4.387 7.133 7.982 7.982 0 0 0 8.34-.68l131.452-96.441a7.987 7.987 0 0 0 3.259-6.189 8.016 8.016 0 0 0-2.858-6.392L276.099 11.042a7.999 7.999 0 0 0-8.519-1.123 8.002 8.002 0 0 0-4.618 7.25v40.048c-44.161.944-83.064 9.67-115.72 25.992-31.331 15.651-56.402 38.402-72.521 65.789-27.331 46.464-27.742 102.842-1.08 150.811a8.01 8.01 0 0 0 6.991 4.123c.34 0 .679-.033 1.028-.071a7.996 7.996 0 0 0 6.722-5.943c25.368-98.786 101.427-115.116 174.58-116.135z" clip-rule="evenodd"></path></svg>